# xmcd CD database file
#
# Track frame offsets:
#	150
#	12555
#	22605
#	31421
#	44381
#	57699
#	69699
#	79792
#	89145
#	97154
#	114351
#	125253
#	135824
#	147512
#	158678
#	171559
#	182489
#	190844
#	200206
#	212254
#	224087
#	235998
#	254735
#	268848
#	281862
#	294010
#	306360
#	319749
#	333232
#	344769
#
# Disc length: 4716 seconds
#
# Revision: 0
# Processed by: cddbd v1.5.1PL0 Copyright (c) Steve Scherf et al.
# Submitted via: CDex 1.51
#
DISCID=d9126a1e
DTITLE=Johnny Cash - Love (1-14) Life (15-30)
DYEAR=1900
DGENRE=Country
TTITLE0=01-I Walk the Line
TTITLE1=03-All Over Again
TTITLE2=04-A Little at A Time
TTITLE3=05-My Old Faded Rose
TTITLE4=06-Happiness is you
TTITLE5=07-Flesh and Blood
TTITLE6=08-I Tremble For you
TTITLE7=09-I Feel Better all Over
TTITLE8=10-'Cause I Love you
TTITLE9=11-Ballad of Barbara
TTITLE10=13-My Shoes Keep Walking Back to you
TTITLE11=14-While I've Got it on my Mind
TTITLE12=15-I Still Miss Someone
TTITLE13=16-The One Rose (That's Left In my Heart)
TTITLE14=01-Suppertime
TTITLE15=02-Country Trash
TTITLE16=04-Time Changes Everything
TTITLE17=05-I Talk to Jesus Every Day
TTITLE18=06-You're the Nearest Thing to Heaven
TTITLE19=07-I'm Ragged But I'm Right
TTITLE20=08-These are My People
TTITLE21=09-The Ballad of Ira Hayes
TTITLE22=10-Oney
TTITLE23=11-Man in Black
TTITLE24=12-I'm Alright Now
TTITLE25=14-I Wish I Was Crazy Again
TTITLE26=15-Where Did We Go Right (With the Carter Family)
TTITLE27=16-Wanted Man
TTITLE28=17-I Can't Go On That Way
TTITLE29=18-Lead Me Gently Home
EXTD=
EXTT0=
EXTT1=
EXTT2=
EXTT3=
EXTT4=
EXTT5=
EXTT6=
EXTT7=
EXTT8=
EXTT9=
EXTT10=
EXTT11=
EXTT12=
EXTT13=
EXTT14=
EXTT15=
EXTT16=
EXTT17=
EXTT18=
EXTT19=
EXTT20=
EXTT21=
EXTT22=
EXTT23=
EXTT24=
EXTT25=
EXTT26=
EXTT27=
EXTT28=
EXTT29=
PLAYORDER=
